<?xml version="1.0" encoding="UTF-8" standalone="no"?>
<svg width="90px" height="74px" viewBox="0 0 90 74" version="1.1" xmlns="http://www.w3.org/2000/svg" xmlns:xlink="http://www.w3.org/1999/xlink" xmlns:sketch="http://www.bohemiancoding.com/sketch/ns">
    <title>Slice 1</title>
    <description>Created with Sketch (http://www.bohemiancoding.com/sketch)</description>
    <defs></defs>
    <g id="Page-1" stroke="none" stroke-width="1" fill="none" fill-rule="evenodd" sketch:type="MSPage">
        <g id="anchor-1" sketch:type="MSLayerGroup" fill="#000000">
            <path d="M83.3,26 L68.7,41 L76.7,43 C72.5,57.6 60.7,67.8 47,68.7 L47,16.8 C50.6,15.9 53.3,12.6 53.3,8.7 C53.3,4.1 49.5,0.3 44.9,0.3 C40.3,0.3 36.5,4.1 36.5,8.7 C36.5,12.6 39.2,15.9 42.8,16.8 L42.8,68.7 C29.1,67.8 17.3,57.6 13.1,43.1 L21.3,41 L6.7,26 L1,46.1 L9,44.1 C11.3,51.9 15.6,58.9 21.5,64 C28.2,69.9 36.3,73 44.9,73 C53.5,73 61.6,69.9 68.3,64 C74.2,58.9 78.5,51.8 80.8,44 L89.1,46.1 L83.3,26 L83.3,26 Z M7,40.3 L8.7,34.1 L13.2,38.7 L7,40.3 L7,40.3 Z M40.6,8.7 C40.6,6.4 42.5,4.5 44.8,4.5 C47.1,4.5 49,6.4 49,8.7 C49,11 47.1,12.9 44.8,12.9 C42.5,12.9 40.6,11.1 40.6,8.7 L40.6,8.7 Z M76.7,38.7 L81.2,34.1 L82.9,40.3 L76.7,38.7 L76.7,38.7 Z" id="Shape" sketch:type="MSShapeGroup"></path>
        </g>
    </g>
</svg>