<?xml version="1.0" encoding="UTF-8" standalone="no"?>
<svg width="100px" height="95px" viewBox="0 0 100 95" version="1.1" xmlns="http://www.w3.org/2000/svg" xmlns:xlink="http://www.w3.org/1999/xlink" xmlns:sketch="http://www.bohemiancoding.com/sketch/ns">
    <!-- Generator: Sketch 3.2.2 (9983) - http://www.bohemiancoding.com/sketch -->
    <title>Slice 1</title>
    <desc>Created with Sketch.</desc>
    <defs></defs>
    <g id="Page-1" stroke="none" stroke-width="1" fill="none" fill-rule="evenodd" sketch:type="MSPage">
        <g id="noun_670-(1)" sketch:type="MSLayerGroup" fill="#000000">
            <path d="M99.532,55.21 L81.211,62.525 L87.275,66.077 C81.187,77.05 68.812,84.936 54.125,86.386 L54.125,27.558 C60.68,25.858 65.576,20.635 65.576,14.167 C65.576,6.389 58.611,0.074 50,0.011 C41.389,0.074 34.424,6.389 34.424,14.167 C34.424,20.635 39.32,25.858 45.875,27.558 L45.875,86.386 C31.187,84.937 18.813,77.05 12.725,66.077 L18.789,62.525 L0.468,55.21 L0,73.509 L5.609,70.226 C13.546,84.457 30.394,94.381 50,94.714 C69.605,94.381 86.453,84.457 94.391,70.226 L100,73.509 L99.532,55.21 L99.532,55.21 Z M43.164,14.167 C43.164,10.735 46.215,7.96 50,7.898 C53.785,7.96 56.836,10.735 56.836,14.167 C56.836,17.598 53.785,20.385 50,20.448 C46.215,20.385 43.164,17.598 43.164,14.167 L43.164,14.167 Z" id="Shape" sketch:type="MSShapeGroup"></path>
        </g>
    </g>
</svg>