<?xml version="1.0" encoding="UTF-8" standalone="no"?>
<svg width="283px" height="254px" viewBox="0 0 283 254" version="1.1" xmlns="http://www.w3.org/2000/svg" xmlns:xlink="http://www.w3.org/1999/xlink" xmlns:sketch="http://www.bohemiancoding.com/sketch/ns">
    <title>Slice 1</title>
    <description>Created with Sketch (http://www.bohemiancoding.com/sketch)</description>
    <defs></defs>
    <g id="Page-1" stroke="none" stroke-width="1" fill="none" fill-rule="evenodd" sketch:type="MSPage">
        <g id="noun_75879_cc" sketch:type="MSLayerGroup" transform="translate(56.000000, 0.000000)" fill="#000000">
            <path d="M164.6,52 L135.4,82 L151.4,86 C143,115.2 119.4,135.6 92,137.4 L92,33.6 C99.2,31.8 104.6,25.2 104.6,17.4 C104.6,8.2 97,0.6 87.8,0.6 C78.6,0.6 71,8.2 71,17.4 C71,25.2 76.4,31.8 83.6,33.6 L83.6,137.4 C56.2,135.6 32.6,115.2 24.2,86.2 L40.6,82 L11.4,52 L0,92.2 L16,88.2 C20.6,103.8 29.2,117.8 41,128 C54.4,139.8 70.6,146 87.8,146 C105,146 121.2,139.8 134.6,128 C146.4,117.8 155,103.6 159.6,88 L176.2,92.2 L164.6,52 L164.6,52 Z M12,80.6 L15.4,68.2 L24.4,77.4 L12,80.6 L12,80.6 Z M79.2,17.4 C79.2,12.8 83,9 87.6,9 C92.2,9 96,12.8 96,17.4 C96,22 92.2,25.8 87.6,25.8 C83,25.8 79.2,22.2 79.2,17.4 L79.2,17.4 Z M151.4,77.4 L160.4,68.2 L163.8,80.6 L151.4,77.4 L151.4,77.4 Z" id="Shape" sketch:type="MSShapeGroup"></path>
        </g>
        <text id="Webyard" sketch:type="MSTextLayer" font-family="Helvetica" font-size="72" font-weight="normal" fill="#000000">
            <tspan x="-1" y="238">Webyard</tspan>
        </text>
    </g>
</svg>